<svg xmlns="http://www.w3.org/2000/svg" width="30" height="27" viewBox="0 0 30 27">
  <path id="icon" d="M681.369,3823.1l-1.108-2.385a1.58,1.58,0,0,1,.763-2.1,9.279,9.279,0,0,0,3.855-2.943,10.528,10.528,0,0,0,1.7-6h-4.476a1.554,1.554,0,0,1-1.539-1.568v-9.538a1.554,1.554,0,0,1,1.539-1.568h9.354a1.555,1.555,0,0,1,1.538,1.568v7.5a31.509,31.509,0,0,1-.951,8.684,13.29,13.29,0,0,1-3.516,5.707,17.081,17.081,0,0,1-5.161,3.413,1.523,1.523,0,0,1-2-.765Zm-17.116-.007-1.1-2.378a1.579,1.579,0,0,1,.763-2.1,9.286,9.286,0,0,0,3.855-2.943,10.528,10.528,0,0,0,1.7-6h-4.476a1.554,1.554,0,0,1-1.538-1.568v-9.538a1.554,1.554,0,0,1,1.538-1.568h9.354a1.555,1.555,0,0,1,1.538,1.568v7.5a31.467,31.467,0,0,1-.951,8.706,13.2,13.2,0,0,1-3.539,5.685,17.373,17.373,0,0,1-5.135,3.407,1.513,1.513,0,0,1-.616.131A1.54,1.54,0,0,1,664.253,3823.1Z" transform="translate(-663 -3797)" fill="#2c2c2c"/>
</svg>
